<svg version="1.2" baseProfile="tiny-ps" xmlns="http://www.w3.org/2000/svg" viewBox="0 0 25 30" width="25" height="30">
	<title>Layer</title>
	<style>
		tspan { white-space:pre }
		.shp0 { fill: #1c1a1a } 
	</style>
	<path id="Layer" fill-rule="evenodd" class="shp0" d="M0 6.35C0 0.85 5.58 0.06 12.47 0.06C19.37 0.06 24.95 0.85 24.95 6.35L24.95 22.08C24.95 22.4 24.91 22.73 24.84 23.05C24.77 23.37 24.67 23.69 24.54 23.99C24.4 24.29 24.24 24.57 24.04 24.84C23.85 25.1 23.63 25.35 23.39 25.57L23.39 28.36C23.39 28.57 23.35 28.77 23.27 28.97C23.19 29.16 23.08 29.33 22.93 29.48C22.79 29.62 22.62 29.74 22.43 29.82C22.24 29.9 22.03 29.94 21.83 29.94L20.27 29.94C20.07 29.94 19.86 29.9 19.67 29.82C19.48 29.74 19.31 29.62 19.17 29.48C19.02 29.33 18.91 29.16 18.83 28.97C18.75 28.77 18.71 28.57 18.71 28.36L18.71 26.79L6.24 26.79L6.24 28.36C6.24 28.57 6.2 28.77 6.12 28.97C6.04 29.16 5.92 29.33 5.78 29.48C5.64 29.62 5.46 29.74 5.27 29.82C5.09 29.9 4.88 29.94 4.68 29.94L3.12 29.94C2.91 29.94 2.71 29.9 2.52 29.82C2.33 29.74 2.16 29.62 2.02 29.48C1.87 29.33 1.76 29.16 1.68 28.97C1.6 28.77 1.56 28.57 1.56 28.36L1.56 25.57C1.32 25.35 1.1 25.1 0.9 24.84C0.71 24.57 0.55 24.29 0.41 23.99C0.28 23.69 0.18 23.37 0.11 23.05C0.04 22.73 0 22.4 0 22.07L0 6.35ZM5.46 23.65C5.61 23.65 5.76 23.63 5.91 23.6C6.06 23.57 6.21 23.53 6.35 23.47C6.49 23.41 6.63 23.34 6.76 23.25C6.88 23.16 7 23.07 7.11 22.96C7.38 22.68 7.58 22.34 7.7 21.97C7.81 21.6 7.83 21.21 7.75 20.83C7.68 20.45 7.51 20.09 7.27 19.79C7.02 19.49 6.71 19.26 6.35 19.11C6.14 19.02 5.92 18.96 5.69 18.94C5.46 18.92 5.23 18.93 5 18.98C4.78 19.02 4.56 19.1 4.35 19.21C4.15 19.32 3.97 19.46 3.8 19.62C3.64 19.79 3.5 19.97 3.39 20.18C3.29 20.38 3.21 20.6 3.16 20.83C3.12 21.06 3.11 21.29 3.13 21.52C3.15 21.75 3.21 21.98 3.3 22.19C3.38 22.41 3.5 22.61 3.65 22.79C3.8 22.96 3.97 23.12 4.16 23.25C4.35 23.38 4.56 23.48 4.78 23.55C5 23.61 5.23 23.65 5.46 23.65ZM19.49 23.65C20.78 23.65 21.83 22.59 21.83 21.29C21.83 21.06 21.8 20.83 21.73 20.6C21.66 20.38 21.56 20.17 21.44 19.98C21.31 19.79 21.15 19.61 20.97 19.47C20.8 19.32 20.6 19.2 20.39 19.11C20.17 19.02 19.95 18.96 19.72 18.94C19.49 18.92 19.26 18.93 19.03 18.98C18.81 19.02 18.59 19.1 18.39 19.21C18.19 19.32 18 19.46 17.84 19.62C17.67 19.79 17.54 19.97 17.43 20.18C17.32 20.38 17.24 20.6 17.2 20.83C17.15 21.06 17.14 21.29 17.16 21.52C17.19 21.75 17.24 21.98 17.33 22.19C17.42 22.41 17.54 22.61 17.68 22.79C17.83 22.96 18 23.12 18.19 23.25C18.38 23.38 18.59 23.48 18.81 23.55C19.03 23.61 19.26 23.65 19.49 23.65L19.49 23.65ZM21.83 6.35L3.12 6.35L3.12 14.21L21.83 14.21L21.83 6.35Z" />
</svg>